# xmcd
# 
# Track frame offsets:
#     150
#     21317
#     44200
#     64877
#     92920
#     107652
#     126900
#     145827
#     167467
#     191697
#     208432
#     236050
# 
# Disc length: 3579
# 
# Revision: 5
# Processed by: cddbd v1.5.2PL0 Copyright (c) Steve Scherf et al.
# Submitted via: fre:ac v1.0.17
# 
DISCID=ba0df90c
DTITLE=Ron Kenoly - Dwell in the house
DYEAR=2001
DGENRE=Contemporary Christian
TTITLE0=Dwell in the house
TTITLE1=Seek Your face
TTITLE2=Move Spirit move
TTITLE3=You are
TTITLE4=Mighty King
TTITLE5=Grandma's hands
TTITLE6=Praise Him
TTITLE7=You alone
TTITLE8=All the way
TTITLE9=My quiet place
TTITLE10=A new anointing
TTITLE11=That City
EXTD=2001
EXTT0=
EXTT1=
EXTT2=
EXTT3=
EXTT4=
EXTT5=
EXTT6=
EXTT7=
EXTT8=
EXTT9=
EXTT10=
EXTT11=
PLAYORDER=
